<?xml version="1.0" encoding="UTF-8"?><svg id="_レイヤー_1" xmlns="http://www.w3.org/2000/svg" xmlns:xlink="http://www.w3.org/1999/xlink" viewBox="0 0 326.85 100"><defs><style>.cls-1{fill:url(#_名称未設定グラデーション_356);}.cls-2{fill:url(#_名称未設定グラデーション_106);}</style><linearGradient id="_名称未設定グラデーション_106" x1="-3.82" y1="21.18" x2="87.53" y2="112.53" gradientUnits="userSpaceOnUse"><stop offset=".07" stop-color="#fff42a"/><stop offset=".85" stop-color="#ff9255"/><stop offset=".94" stop-color="#ffad7f"/></linearGradient><linearGradient id="_名称未設定グラデーション_356" x1="102.95" y1="51.11" x2="326.85" y2="51.11" gradientUnits="userSpaceOnUse"><stop offset="0" stop-color="#ff652a"/><stop offset=".29" stop-color="#ff6828" stop-opacity="1"/><stop offset=".48" stop-color="#ff7325" stop-opacity=".99"/><stop offset=".64" stop-color="#ff851e" stop-opacity=".97"/><stop offset=".78" stop-color="#ff9f15" stop-opacity=".95"/><stop offset=".91" stop-color="#ffc009" stop-opacity=".92"/><stop offset="1" stop-color="#ffdc00" stop-opacity=".9"/></linearGradient></defs><path class="cls-2" d="m25,25H0V0h25v25Zm75,50h-25v25h25v-25Zm-75,0H0v25h25v-25Zm50-50H25v50h50V25Z"/><path class="cls-1" d="m144.62,73.79h-11.52c-2.55-3.96-4.85-7.39-6.91-10.28-2.06-2.89-4.29-5.86-6.7-8.93h-4.38v13.44c0,.7.11,1.31.33,1.84.22.53.69.93,1.42,1.21.36.14.99.27,1.9.39.9.12,1.67.19,2.29.21v2.12h-18.09v-2.12c.48-.04,1.18-.11,2.1-.21.91-.1,1.55-.23,1.91-.39.6-.26,1.04-.64,1.31-1.13s.41-1.14.41-1.91v-30.65c0-.7-.1-1.31-.3-1.85-.2-.54-.67-.95-1.42-1.23-.5-.18-1.16-.34-1.96-.49-.8-.15-1.49-.24-2.05-.28v-2.12h19.75c1.81,0,3.51.18,5.1.55,1.59.37,3.02.96,4.31,1.78,1.25.8,2.24,1.84,2.98,3.12.74,1.28,1.12,2.83,1.12,4.65,0,1.63-.25,3.08-.75,4.33-.5,1.25-1.25,2.34-2.23,3.26-.9.86-1.99,1.6-3.26,2.23-1.27.63-2.66,1.16-4.19,1.6,2.11,2.77,3.86,5.1,5.26,6.99,1.4,1.89,3.11,4.19,5.14,6.9.88,1.19,1.68,2.08,2.4,2.64.71.57,1.42,1.03,2.13,1.39.52.26,1.18.46,1.96.6.78.14,1.44.22,1.96.24v2.12Zm-15.86-31.59c0-2.57-.74-4.6-2.23-6.1-1.49-1.5-3.59-2.25-6.3-2.25h-5.13v18.16h3.95c2.77,0,5.09-.88,6.94-2.64,1.85-1.76,2.77-4.15,2.77-7.17Z"/><path class="cls-1" d="m171.91,66.86c-1.25,2.35-2.91,4.22-5,5.62-2.09,1.39-4.49,2.09-7.21,2.09-2.39,0-4.49-.42-6.29-1.25-1.8-.84-3.28-1.97-4.45-3.41-1.17-1.43-2.04-3.11-2.61-5.02s-.86-3.93-.86-6.07c0-1.91.31-3.79.92-5.63.61-1.84,1.51-3.5,2.7-4.97,1.15-1.41,2.57-2.55,4.27-3.42,1.7-.87,3.6-1.3,5.71-1.3s4.03.34,5.58,1.02,2.8,1.6,3.77,2.78c.92,1.12,1.61,2.43,2.07,3.94.45,1.51.68,3.16.68,4.93v1.97h-19.69c0,1.94.19,3.69.56,5.27.37,1.58.96,2.96,1.76,4.16.78,1.16,1.81,2.07,3.08,2.74,1.27.67,2.77,1,4.52,1s3.33-.42,4.63-1.25,2.55-2.33,3.75-4.49l2.11,1.29Zm-6.66-11.23c0-1.11-.1-2.3-.29-3.57-.19-1.27-.5-2.33-.92-3.19-.46-.91-1.1-1.66-1.9-2.23-.8-.58-1.84-.86-3.11-.86-2.11,0-3.86.87-5.26,2.61-1.4,1.74-2.16,4.15-2.28,7.25h13.75Z"/><path class="cls-1" d="m189.1,74.57c-4.3,0-7.67-1.41-10.1-4.24-2.43-2.83-3.65-6.62-3.65-11.38,0-2.07.33-4.01.98-5.81s1.6-3.44,2.85-4.91c1.19-1.41,2.67-2.55,4.46-3.42s3.74-1.3,5.85-1.3c2.91,0,5.29.69,7.12,2.08s2.74,3.27,2.74,5.66c0,1-.24,1.88-.72,2.64-.48.77-1.28,1.15-2.38,1.15-1.19,0-2.11-.3-2.76-.89-.65-.6-.98-1.26-.98-2,0-.89.12-1.81.36-2.75.24-.94.38-1.63.42-2.07-.36-.62-.9-1.03-1.61-1.24-.71-.21-1.48-.31-2.3-.31-.96,0-1.88.2-2.75.61-.87.41-1.72,1.16-2.54,2.26-.74,1-1.34,2.34-1.8,4.03-.46,1.69-.69,3.71-.69,6.06,0,3.7.83,6.73,2.48,9.07,1.66,2.34,3.83,3.51,6.52,3.51,1.95,0,3.58-.47,4.89-1.41,1.31-.94,2.53-2.35,3.66-4.24l1.93,1.25c-1.33,2.35-3.08,4.21-5.25,5.59-2.17,1.37-4.41,2.06-6.72,2.06Z"/><path class="cls-1" d="m232.39,58.76c0,2.07-.33,4.11-1,6.11-.66,2-1.61,3.7-2.84,5.09-1.39,1.59-3,2.78-4.83,3.56-1.83.78-3.88,1.17-6.16,1.17-1.89,0-3.69-.35-5.4-1.06-1.71-.71-3.23-1.74-4.56-3.09-1.31-1.33-2.35-2.96-3.12-4.88s-1.16-4.08-1.16-6.47c0-4.6,1.35-8.37,4.06-11.29,2.71-2.93,6.25-4.39,10.64-4.39s7.6,1.39,10.31,4.17,4.06,6.48,4.06,11.1Zm-6.24.06c0-1.49-.15-3.07-.45-4.73-.3-1.66-.75-3.07-1.36-4.23-.64-1.23-1.49-2.23-2.54-2.97s-2.33-1.12-3.84-1.12-2.88.38-3.97,1.14c-1.1.76-1.99,1.79-2.67,3.11-.64,1.21-1.1,2.6-1.36,4.15-.26,1.55-.39,3.06-.39,4.51,0,1.91.16,3.68.47,5.3.31,1.62.81,3.07,1.5,4.35s1.54,2.28,2.58,3c1.04.73,2.32,1.09,3.85,1.09,2.52,0,4.51-1.21,5.98-3.62,1.47-2.41,2.21-5.74,2.21-9.98Z"/><path class="cls-1" d="m259.44,48.13c0,1.02-.25,1.92-.75,2.7-.5.79-1.28,1.18-2.32,1.18-1.13,0-1.99-.29-2.58-.87s-.89-1.21-.89-1.91c0-.44.04-.84.11-1.19.07-.36.14-.72.2-1.08-.95,0-2.05.38-3.32,1.14-1.27.76-2.34,1.83-3.23,3.23v17.15c0,.7.14,1.26.41,1.7.27.44.7.77,1.28.99.5.2,1.15.35,1.95.45.79.1,1.48.17,2.07.21v1.97h-15.68v-1.97c.46-.04.94-.08,1.43-.12.49-.04.92-.12,1.28-.24.56-.18.98-.49,1.25-.94s.41-1.03.41-1.75v-18.17c0-.62-.15-1.22-.44-1.82-.29-.6-.7-1.07-1.22-1.43-.38-.24-.83-.41-1.36-.52-.52-.11-1.08-.18-1.69-.22v-1.97l9.89-.66.42.42v4.15h.15c1.25-1.61,2.63-2.84,4.16-3.67s2.92-1.25,4.19-1.25,2.3.41,3.09,1.23c.79.82,1.19,1.91,1.19,3.29Z"/><path class="cls-1" d="m290.98,58.76c0,2.07-.33,4.11-1,6.11-.66,2-1.61,3.7-2.84,5.09-1.39,1.59-3,2.78-4.83,3.56-1.83.78-3.88,1.17-6.16,1.17-1.89,0-3.69-.35-5.4-1.06-1.71-.71-3.23-1.74-4.56-3.09-1.31-1.33-2.35-2.96-3.12-4.88s-1.16-4.08-1.16-6.47c0-4.6,1.35-8.37,4.06-11.29,2.71-2.93,6.25-4.39,10.64-4.39s7.6,1.39,10.31,4.17,4.06,6.48,4.06,11.1Zm-6.24.06c0-1.49-.15-3.07-.45-4.73-.3-1.66-.75-3.07-1.36-4.23-.64-1.23-1.49-2.23-2.54-2.97s-2.33-1.12-3.84-1.12-2.88.38-3.97,1.14c-1.1.76-1.99,1.79-2.67,3.11-.64,1.21-1.1,2.6-1.36,4.15-.26,1.55-.39,3.06-.39,4.51,0,1.91.16,3.68.47,5.3.31,1.62.81,3.07,1.5,4.35s1.54,2.28,2.58,3c1.04.73,2.32,1.09,3.85,1.09,2.52,0,4.51-1.21,5.98-3.62,1.47-2.41,2.21-5.74,2.21-9.98Z"/><path class="cls-1" d="m309.19,73.79h-14.5v-1.97c.46-.04.96-.08,1.48-.13s.96-.12,1.3-.22c.56-.18.98-.49,1.27-.94.28-.45.42-1.03.42-1.75v-34.14c0-.72-.16-1.39-.47-2.02s-.72-1.12-1.22-1.48c-.36-.24-1.03-.46-1.99-.66-.96-.2-1.74-.32-2.32-.36v-1.91l11.19-.66.42.45v40.42c0,.7.13,1.27.39,1.72.26.45.68.79,1.27,1.03.44.2.88.35,1.31.45.43.1.92.17,1.46.21v1.97Z"/><path class="cls-1" d="m326.85,73.79h-14.5v-1.97c.46-.04.96-.08,1.48-.13s.96-.12,1.3-.22c.56-.18.98-.49,1.27-.94.28-.45.42-1.03.42-1.75v-34.14c0-.72-.16-1.39-.47-2.02s-.72-1.12-1.22-1.48c-.36-.24-1.03-.46-1.99-.66-.96-.2-1.74-.32-2.32-.36v-1.91l11.19-.66.42.45v40.42c0,.7.13,1.27.39,1.72.26.45.68.79,1.27,1.03.44.2.88.35,1.31.45.43.1.92.17,1.46.21v1.97Z"/></svg>